<?xml version="1.0" encoding="utf-8"?>
<!-- Generator: Adobe Illustrator 23.0.1, SVG Export Plug-In . SVG Version: 6.00 Build 0)  -->
<svg version="1.1" id="Layer_1" xmlns:ev="http://www.w3.org/2001/xml-events"
	 xmlns="http://www.w3.org/2000/svg" xmlns:xlink="http://www.w3.org/1999/xlink" x="0px" y="0px" viewBox="0 0 3448 2416"
	 style="enable-background:new 0 0 3448 2416;" xml:space="preserve">
<style type="text/css">
	.st0{fill-opacity:0.902;}
	.st1{fill:#FFFFFF;fill-opacity:0.7843;}
</style>
<title></title>
<desc>
	Creator: FreeHEP Graphics2D Driver Producer: org.freehep.graphicsio.svg.SVGGraphics2D Revision Source:  Date: Tuesday, March 26, 2019 7:30:03 PM BRT
	</desc>
<g>
	<g transform="matrix(4, 0, 0, 4, 0, 0)">
		<image style="overflow:visible;enable-background:new    ;" width="862" height="604" xlink:href="A794EA9BAE338D40.JPG" >
		</image>
	</g>
	<g transform="matrix(4, 0, 0, 4, 0, 0)">
		<g>
			<path class="st0" d="M32,340.7c-2.3,0-4,1.3-4,3c0,1.6,0.9,2.6,3.3,3.2c2.1,0.6,2.7,1,2.7,2.1c0,1-0.9,1.7-2.4,1.7
				c-1.2,0-2.2-0.4-3.1-1.1l-1,1.2c1,0.8,2.3,1.4,4.2,1.4c2.2,0,4.4-1.1,4.4-3.4c0-1.9-1.3-2.9-3.7-3.4c-1.8-0.5-2.4-0.9-2.4-1.8
				c0-0.9,0.8-1.4,2-1.4c1,0,1.9,0.3,2.9,0.9l0.8-1.2C34.7,341.1,33.6,340.7,32,340.7z M47,340.9h-1.9v7.9c-0.7,1.1-1.6,1.9-2.8,1.9
				c-1.2,0-1.7-0.6-1.7-2.1v-7.7h-1.9v7.9c0,2.2,1.2,3.4,3.1,3.4c1.6,0,2.6-0.6,3.4-2l0.1,1.7H47V340.9z M59.4,339.7
				c-1.3,0.6-2.3,1-5.1,1c-2.4,0-4.3,1.6-4.3,3.9c0,1.4,0.6,2.4,1.9,3.1c-0.8,0.5-1.2,1.2-1.2,2c0,1.1,0.9,2.1,2.9,2.1h1.7
				c1.4,0,2.2,0.5,2.2,1.6c0,1.1-0.8,1.7-3.2,1.7c-2.4,0-3-0.6-3-1.8h-1.7c0,2.2,1.1,3.4,4.7,3.4c3.4,0,5.2-1.2,5.2-3.4
				c0-1.8-1.5-3.1-3.8-3.1h-1.8c-1.1,0-1.4-0.4-1.4-0.9c0-0.4,0.2-0.8,0.5-1c0.5,0.1,0.9,0.2,1.4,0.2c2.6,0,4.2-1.6,4.2-3.8
				c0-1.3-0.7-2.2-2-2.8c1.3,0,2.3,0,3.2-0.3L59.4,339.7z M54.3,342.1c1.6,0,2.4,0.8,2.4,2.5c0,1.6-0.8,2.5-2.3,2.5s-2.3-1-2.3-2.5
				C52,343.1,52.8,342.1,54.3,342.1z M62.9,335.6c-0.8,0-1.3,0.6-1.3,1.3c0,0.7,0.5,1.3,1.3,1.3c0.8,0,1.4-0.6,1.4-1.3
				C64.3,336.2,63.7,335.6,62.9,335.6z M63.9,340.9h-1.9V352h1.9V340.9z M76,340.9h-2l-2.9,9.7l-3-9.7h-2.1l3.7,11.1h0.7
				c-0.6,1.7-1.3,2.6-3.5,3l0.2,1.5c3.1-0.3,4.4-2.1,5.1-4.4L76,340.9z M85.7,349.4v-5.1c0-2.3-1.2-3.7-3.9-3.7
				c-1.2,0-2.5,0.3-3.8,0.8l0.5,1.4c1.1-0.4,2.2-0.6,3-0.6c1.5,0,2.3,0.6,2.3,2.2v0.8H82c-3.1,0-4.9,1.3-4.9,3.7
				c0,2,1.3,3.3,3.5,3.3c1.3,0,2.5-0.5,3.3-1.7c0.3,1.1,1.1,1.5,2.2,1.7l0.4-1.3C86,350.7,85.7,350.4,85.7,349.4z M81.1,350.8
				c-1.3,0-1.9-0.7-1.9-2c0-1.5,1-2.3,3.1-2.3h1.4v2.5C83.1,350.2,82.3,350.8,81.1,350.8z M100.7,340.7c-1.5,0-2.5,0.8-3.3,2
				c-0.4-1.3-1.4-2-2.8-2c-1.4,0-2.5,0.8-3.2,1.9l-0.2-1.6h-1.7V352h1.9v-7.9c0.7-1.2,1.4-2,2.6-2c0.8,0,1.6,0.5,1.6,2.1v7.7h1.9
				v-7.9c0.8-1.2,1.4-2,2.6-2c0.8,0,1.6,0.5,1.6,2.1v7.7h1.9v-7.9C103.7,342,102.5,340.7,100.7,340.7z M115.1,349.4v-5.1
				c0-2.3-1.2-3.7-3.9-3.7c-1.2,0-2.5,0.3-3.8,0.8l0.5,1.4c1.1-0.4,2.2-0.6,3-0.6c1.5,0,2.3,0.6,2.3,2.2v0.8h-1.7
				c-3.1,0-4.9,1.3-4.9,3.7c0,2,1.3,3.3,3.5,3.3c1.3,0,2.5-0.5,3.3-1.7c0.3,1.1,1.1,1.5,2.2,1.7l0.4-1.3
				C115.4,350.7,115.1,350.4,115.1,349.4z M110.5,350.8c-1.3,0-1.9-0.7-1.9-2c0-1.5,1-2.3,3.1-2.3h1.4v2.5
				C112.5,350.2,111.7,350.8,110.5,350.8z M119.5,349.3c-0.8,0-1.4,0.7-1.4,1.4c0,0.5,0.2,0.9,0.6,1.2l-0.8,3.5h1.4l1.4-3.2
				c0.3-0.6,0.4-1,0.4-1.5C121,350,120.4,349.3,119.5,349.3z M140.8,340.7c-1.5,0-2.5,0.8-3.3,2c-0.4-1.3-1.4-2-2.8-2
				c-1.4,0-2.5,0.8-3.2,1.9l-0.2-1.6h-1.7V352h1.9v-7.9c0.7-1.2,1.4-2,2.6-2c0.8,0,1.6,0.5,1.6,2.1v7.7h1.9v-7.9
				c0.8-1.2,1.4-2,2.6-2c0.8,0,1.6,0.5,1.6,2.1v7.7h1.9v-7.9C143.8,342,142.6,340.7,140.8,340.7z"/>
		</g>
	</g>
	<g transform="matrix(4, 0, 0, 4, 0, 0)">
		<g>
			<path class="st0" d="M536.8,428.2c-0.5,0.3-1,0.5-1.5,0.5c-1,0-1.3-0.5-1.3-1.6v-6.6h2.4l0.2-1.5h-2.6v-2.7l-1.9,0.2v2.5h-1.9
				v1.5h1.9v6.7c0,2.1,1.1,3.2,3,3.2c0.9,0,1.7-0.3,2.5-0.8L536.8,428.2z M546.1,418.9h-7.5v1.6h5.3l-5.8,8v1.4h7.8l0.2-1.6h-5.8
				l5.8-8V418.9z M557.1,424.1c0-3.4-1.6-5.5-4.6-5.5c-2.9,0-4.6,2.5-4.6,5.9c0,3.5,1.8,5.7,4.9,5.7c1.5,0,2.8-0.5,3.9-1.4l-0.8-1.2
				c-1,0.7-1.8,1-2.9,1c-1.6,0-2.8-1-3-3.5h7.1C557.1,424.9,557.1,424.5,557.1,424.1z M555.2,423.7H550c0.1-2.5,1.1-3.5,2.6-3.5
				c1.7,0,2.6,1.2,2.6,3.4V423.7z M565.5,418.7c-1.4,0-2.6,0.8-3.4,1.9l-0.2-1.6h-1.7V430h1.9v-7.9c0.7-1.2,1.6-2,2.8-2
				c1.1,0,1.7,0.5,1.7,2.1v7.7h1.9v-7.9C568.7,420,567.5,418.7,565.5,418.7z M581,417.7c-1.3,0.6-2.3,1-5.1,1
				c-2.4,0-4.3,1.6-4.3,3.9c0,1.4,0.6,2.4,1.9,3.1c-0.8,0.5-1.2,1.2-1.2,2c0,1.1,0.9,2.1,2.9,2.1h1.7c1.4,0,2.2,0.5,2.2,1.6
				c0,1.1-0.8,1.7-3.2,1.7c-2.4,0-3-0.6-3-1.8h-1.7c0,2.2,1.1,3.4,4.7,3.4c3.4,0,5.2-1.2,5.2-3.4c0-1.8-1.5-3.1-3.8-3.1h-1.8
				c-1.1,0-1.4-0.4-1.4-0.9c0-0.4,0.2-0.8,0.5-1c0.5,0.1,0.9,0.2,1.4,0.2c2.6,0,4.2-1.6,4.2-3.8c0-1.3-0.7-2.2-2-2.8
				c1.3,0,2.3,0,3.2-0.3L581,417.7z M575.9,420.1c1.6,0,2.4,0.8,2.4,2.5c0,1.6-0.8,2.5-2.3,2.5c-1.5,0-2.3-1-2.3-2.5
				C573.6,421.1,574.4,420.1,575.9,420.1z M584,427.3c-0.8,0-1.4,0.7-1.4,1.4c0,0.5,0.2,0.9,0.6,1.2l-0.8,3.5h1.4l1.4-3.2
				c0.3-0.6,0.4-1,0.4-1.5C585.5,428,584.9,427.3,584,427.3z M602.5,424.1c0-3.4-1.6-5.5-4.6-5.5c-2.9,0-4.6,2.5-4.6,5.9
				c0,3.5,1.8,5.7,4.9,5.7c1.5,0,2.8-0.5,3.9-1.4l-0.8-1.2c-1,0.7-1.8,1-2.9,1c-1.6,0-2.8-1-3-3.5h7.1
				C602.5,424.9,602.5,424.5,602.5,424.1z M600.6,423.7h-5.2c0.1-2.5,1.1-3.5,2.6-3.5c1.7,0,2.6,1.2,2.6,3.4V423.7z"/>
		</g>
	</g>
	<g transform="matrix(4, 0, 0, 4, 0, 0)">
		<g>
			<path class="st0" d="M640.4,383.7c-1.3,0.6-2.3,1-5.1,1c-2.4,0-4.3,1.6-4.3,3.9c0,1.4,0.6,2.4,1.9,3.1c-0.8,0.5-1.2,1.2-1.2,2
				c0,1.1,0.9,2.1,2.9,2.1h1.7c1.4,0,2.2,0.5,2.2,1.6c0,1.1-0.8,1.7-3.2,1.7c-2.4,0-3-0.6-3-1.8h-1.7c0,2.2,1.1,3.4,4.7,3.4
				c3.4,0,5.2-1.2,5.2-3.4c0-1.8-1.5-3.1-3.8-3.1h-1.8c-1.1,0-1.4-0.4-1.4-0.9c0-0.4,0.2-0.8,0.5-1c0.5,0.1,0.9,0.2,1.4,0.2
				c2.6,0,4.2-1.6,4.2-3.8c0-1.3-0.7-2.2-2-2.8c1.3,0,2.3,0,3.2-0.3L640.4,383.7z M635.3,386.1c1.6,0,2.4,0.8,2.4,2.5
				c0,1.6-0.8,2.5-2.3,2.5c-1.5,0-2.3-1-2.3-2.5C633,387.1,633.8,386.1,635.3,386.1z M647.1,384.7c-3.2,0-5,2.4-5,5.8
				c0,3.5,1.8,5.8,4.9,5.8c3.1,0,4.9-2.4,4.9-5.8C652,386.9,650.2,384.7,647.1,384.7z M647.1,386.2c1.8,0,2.8,1.3,2.8,4.2
				c0,2.9-1,4.2-2.9,4.2c-1.8,0-2.9-1.3-2.9-4.2C644.2,387.6,645.2,386.2,647.1,386.2z M659.3,384.7c-3.2,0-5,2.4-5,5.8
				c0,3.5,1.8,5.8,4.9,5.8c3.1,0,4.9-2.4,4.9-5.8C664.3,386.9,662.5,384.7,659.3,384.7z M659.3,386.2c1.8,0,2.8,1.3,2.8,4.2
				c0,2.9-1,4.2-2.9,4.2c-1.8,0-2.9-1.3-2.9-4.2C656.5,387.6,657.5,386.2,659.3,386.2z M674.1,380.2v5.8c-0.7-0.8-1.7-1.4-3-1.4
				c-2.7,0-4.3,2.5-4.3,5.8c0,3.4,1.5,5.7,4.2,5.7c1.4,0,2.5-0.7,3.2-1.8l0.2,1.5h1.7v-15.5L674.1,380.2z M671.3,394.7
				c-1.6,0-2.5-1.3-2.5-4.2c0-2.9,1-4.3,2.7-4.3c1.1,0,1.9,0.6,2.6,1.4v5.4C673.3,394.1,672.6,394.7,671.3,394.7z M683.8,381.8
				c0.6,0,1.2,0.1,1.9,0.4l0.6-1.4c-0.9-0.4-1.6-0.6-2.6-0.6c-2.2,0-3.5,1.3-3.5,3.2v1.5h-2v1.5h2v9.6h1.9v-9.6h2.5l0.2-1.5h-2.7
				v-1.5C682.1,382.3,682.5,381.8,683.8,381.8z M695.4,390.1c0-3.4-1.6-5.5-4.6-5.5c-2.9,0-4.6,2.5-4.6,5.9c0,3.5,1.8,5.7,4.9,5.7
				c1.5,0,2.8-0.5,3.9-1.4l-0.8-1.2c-1,0.7-1.8,1-2.9,1c-1.6,0-2.8-1-3-3.5h7.1C695.4,390.9,695.4,390.5,695.4,390.1z M693.5,389.7
				h-5.2c0.1-2.5,1.1-3.5,2.6-3.5c1.7,0,2.6,1.2,2.6,3.4V389.7z M700.8,396.3c0.6,0,1.1-0.1,1.5-0.4l-0.5-1.3
				c-0.2,0.1-0.4,0.1-0.7,0.1c-0.5,0-0.7-0.3-0.7-0.9v-13.5l-1.9,0.2v13.3C698.5,395.4,699.4,396.3,700.8,396.3z M706.9,396.3
				c0.6,0,1.1-0.1,1.5-0.4l-0.5-1.3c-0.2,0.1-0.4,0.1-0.7,0.1c-0.5,0-0.7-0.3-0.7-0.9v-13.5l-1.9,0.2v13.3
				C704.6,395.4,705.5,396.3,706.9,396.3z M715,384.7c-3.2,0-5,2.4-5,5.8c0,3.5,1.8,5.8,4.9,5.8c3.1,0,4.9-2.4,4.9-5.8
				C720,386.9,718.2,384.7,715,384.7z M715,386.2c1.8,0,2.8,1.3,2.8,4.2c0,2.9-1,4.2-2.9,4.2c-1.8,0-2.9-1.3-2.9-4.2
				C712.2,387.6,713.2,386.2,715,386.2z M735.8,384.9H734l-2,9.7l-2.1-9.7h-2.2l-2.2,9.7l-2-9.7h-1.9l2.6,11.1h2.6l2-9.3l1.9,9.3
				h2.6L735.8,384.9z M738.7,393.3c-0.8,0-1.4,0.7-1.4,1.4c0,0.5,0.2,0.9,0.6,1.2l-0.8,3.5h1.4l1.4-3.2c0.3-0.6,0.4-1,0.4-1.5
				C740.2,394,739.6,393.3,738.7,393.3z M749.8,379.6c-0.8,0-1.3,0.6-1.3,1.3c0,0.7,0.5,1.3,1.3,1.3c0.8,0,1.4-0.6,1.4-1.3
				C751.1,380.2,750.6,379.6,749.8,379.6z M750.8,384.9h-1.9V396h1.9V384.9z"/>
		</g>
	</g>
	<g transform="matrix(4, 0, 0, 4, 0, 0)">
		<g>
			<path class="st0" d="M662,231.7c-2.3,0-4,1.3-4,3c0,1.6,0.9,2.6,3.3,3.2c2.1,0.6,2.7,1,2.7,2.1c0,1-0.9,1.7-2.4,1.7
				c-1.2,0-2.2-0.4-3.1-1.1l-1,1.2c1,0.8,2.3,1.4,4.2,1.4c2.2,0,4.4-1.1,4.4-3.4c0-1.9-1.3-2.9-3.7-3.4c-1.8-0.5-2.4-0.9-2.4-1.8
				c0-0.9,0.8-1.4,2-1.4c1,0,1.9,0.3,2.9,0.9l0.8-1.2C664.7,232.1,663.6,231.7,662,231.7z M673.6,231.7c-1.3,0-2.4,0.8-3,2.5
				l-0.2-2.2h-1.7V243h1.9v-6.3c0.5-2.1,1.3-3.1,2.6-3.1c0.4,0,0.6,0,1,0.1l0.4-1.9C674.4,231.7,674,231.7,673.6,231.7z
				 M677.9,226.6c-0.8,0-1.3,0.6-1.3,1.3c0,0.7,0.5,1.3,1.3,1.3c0.8,0,1.4-0.6,1.4-1.3C679.2,227.2,678.7,226.6,677.9,226.6z
				 M678.8,231.9h-1.9V243h1.9V231.9z M691,231.9h-2l-2.9,9.3l-2.9-9.3H681l3.8,11.1h2.3L691,231.9z M700.6,240.4v-5.1
				c0-2.3-1.2-3.7-3.9-3.7c-1.2,0-2.5,0.3-3.8,0.8l0.5,1.4c1.1-0.4,2.2-0.6,3-0.6c1.5,0,2.3,0.6,2.3,2.2v0.8H697
				c-3.1,0-4.9,1.3-4.9,3.7c0,2,1.3,3.3,3.5,3.3c1.3,0,2.5-0.5,3.3-1.7c0.3,1.1,1,1.5,2.2,1.7l0.4-1.3
				C701,241.7,700.6,241.4,700.6,240.4z M696.1,241.8c-1.3,0-1.9-0.7-1.9-2c0-1.5,1-2.3,3.1-2.3h1.4v2.5
				C698.1,241.2,697.2,241.8,696.1,241.8z M707.6,231.7c-2.3,0-4,1.3-4,3c0,1.6,0.9,2.6,3.3,3.2c2.1,0.6,2.7,1,2.7,2.1
				c0,1-0.9,1.7-2.4,1.7c-1.2,0-2.2-0.4-3.1-1.1l-1,1.2c1,0.8,2.3,1.4,4.2,1.4c2.2,0,4.4-1.1,4.4-3.4c0-1.9-1.3-2.9-3.7-3.4
				c-1.8-0.5-2.4-0.9-2.4-1.8c0-0.9,0.8-1.4,2-1.4c1,0,1.9,0.3,2.9,0.9l0.8-1.2C710.3,232.1,709.1,231.7,707.6,231.7z M719.2,241.2
				c-0.5,0.3-1,0.5-1.5,0.5c-1,0-1.3-0.5-1.3-1.6v-6.6h2.4l0.2-1.5h-2.6v-2.7l-1.9,0.2v2.5h-1.9v1.5h1.9v6.7c0,2.1,1.1,3.1,3,3.1
				c0.9,0,1.7-0.3,2.5-0.8L719.2,241.2z M729.4,240.4v-5.1c0-2.3-1.2-3.7-3.9-3.7c-1.2,0-2.5,0.3-3.8,0.8l0.5,1.4
				c1.1-0.4,2.2-0.6,3-0.6c1.5,0,2.3,0.6,2.3,2.2v0.8h-1.7c-3.1,0-4.9,1.3-4.9,3.7c0,2,1.3,3.3,3.5,3.3c1.3,0,2.5-0.5,3.3-1.7
				c0.3,1.1,1,1.5,2.2,1.7l0.4-1.3C729.8,241.7,729.4,241.4,729.4,240.4z M724.9,241.8c-1.3,0-1.9-0.7-1.9-2c0-1.5,1-2.3,3.1-2.3
				h1.4v2.5C726.9,241.2,726,241.8,724.9,241.8z M741.5,231.9h-2l-2.9,9.3l-2.9-9.3h-2.1l3.8,11.1h2.3L741.5,231.9z M751.2,240.4
				v-5.1c0-2.3-1.2-3.7-3.9-3.7c-1.2,0-2.5,0.3-3.8,0.8l0.5,1.4c1.1-0.4,2.2-0.6,3-0.6c1.5,0,2.3,0.6,2.3,2.2v0.8h-1.7
				c-3.1,0-4.9,1.3-4.9,3.7c0,2,1.3,3.3,3.5,3.3c1.3,0,2.5-0.5,3.3-1.7c0.3,1.1,1,1.5,2.2,1.7l0.4-1.3
				C751.5,241.7,751.2,241.4,751.2,240.4z M746.6,241.8c-1.3,0-1.9-0.7-1.9-2c0-1.5,1-2.3,3.1-2.3h1.4v2.5
				C748.6,241.2,747.8,241.8,746.6,241.8z M755.7,240.3c-0.8,0-1.4,0.7-1.4,1.4c0,0.5,0.2,0.9,0.6,1.2l-0.8,3.5h1.4l1.4-3.2
				c0.3-0.6,0.4-1,0.4-1.5C757.1,241,756.5,240.3,755.7,240.3z M771,231.7c-1.4,0-2.6,0.8-3.4,1.9l-0.2-1.6h-1.7V243h1.9v-7.9
				c0.7-1.2,1.6-2,2.8-2c1.1,0,1.7,0.5,1.7,2.1v7.7h1.9v-7.9C774.2,233,773,231.7,771,231.7z"/>
		</g>
	</g>
	<g transform="matrix(4, 0, 0, 4, 0, 0)">
		<g>
			<path class="st0" d="M459.2,332.3c0.6,0,1.1-0.1,1.5-0.4l-0.5-1.3c-0.2,0.1-0.4,0.1-0.7,0.1c-0.5,0-0.7-0.3-0.7-0.9v-13.5
				l-1.9,0.2v13.3C456.9,331.4,457.8,332.3,459.2,332.3z M467.3,320.7c-3.2,0-5,2.4-5,5.8c0,3.5,1.8,5.8,4.9,5.8
				c3.1,0,4.9-2.4,4.9-5.8C472.2,322.9,470.5,320.7,467.3,320.7z M467.3,322.2c1.8,0,2.8,1.3,2.8,4.2c0,2.9-1,4.2-2.9,4.2
				c-1.8,0-2.9-1.3-2.9-4.2C464.4,323.6,465.5,322.2,467.3,322.2z M488.1,320.9h-1.8l-2,9.7l-2.1-9.7h-2.2l-2.2,9.7l-2-9.7h-1.9
				l2.6,11.1h2.6l2-9.3l1.9,9.3h2.6L488.1,320.9z M498.8,326.1c0-3.4-1.6-5.5-4.6-5.5c-2.9,0-4.6,2.5-4.6,5.9c0,3.5,1.8,5.7,4.9,5.7
				c1.5,0,2.8-0.5,3.9-1.4l-0.8-1.2c-1,0.7-1.8,1-2.9,1c-1.6,0-2.8-1-3-3.5h7.1C498.8,326.9,498.8,326.5,498.8,326.1z M496.9,325.7
				h-5.2c0.1-2.5,1.1-3.5,2.6-3.5c1.7,0,2.6,1.2,2.6,3.4V325.7z M502.5,329.3c-0.8,0-1.4,0.7-1.4,1.4c0,0.5,0.2,0.9,0.6,1.2
				l-0.8,3.5h1.4l1.4-3.2c0.3-0.6,0.4-1,0.4-1.5C504,330,503.4,329.3,502.5,329.3z M519.3,316.2v5.8c-0.7-0.8-1.7-1.4-3-1.4
				c-2.7,0-4.3,2.5-4.3,5.8c0,3.4,1.5,5.7,4.2,5.7c1.4,0,2.5-0.7,3.2-1.8l0.2,1.5h1.7v-15.5L519.3,316.2z M516.5,330.7
				c-1.6,0-2.5-1.3-2.5-4.2c0-2.9,1-4.3,2.7-4.3c1.1,0,1.9,0.6,2.6,1.4v5.4C518.5,330.1,517.8,330.7,516.5,330.7z"/>
		</g>
	</g>
	<g transform="matrix(4, 0, 0, 4, 0, 0)">
		<g>
			<path class="st0" d="M402.3,286.4h-1.9l-2.1,10.2l-2.2-10.2h-2.3l-2.3,10.2l-2.1-10.2h-2l2.7,11.6h2.7l2.1-9.8l2,9.8h2.8
				L402.3,286.4z M412.7,295.3V290c0-2.4-1.3-3.9-4.1-3.9c-1.3,0-2.6,0.3-4,0.8l0.5,1.5c1.2-0.4,2.3-0.6,3.1-0.6
				c1.6,0,2.4,0.6,2.4,2.3v0.9h-1.8c-3.2,0-5.1,1.3-5.1,3.8c0,2.1,1.4,3.5,3.7,3.5c1.4,0,2.6-0.5,3.5-1.7c0.4,1.1,1.1,1.6,2.3,1.7
				l0.5-1.4C413,296.6,412.7,296.3,412.7,295.3z M407.9,296.7c-1.3,0-2-0.7-2-2.1c0-1.6,1.1-2.4,3.2-2.4h1.5v2.7
				C410,296.2,409.1,296.7,407.9,296.7z M422.3,286.1c-1.5,0-2.8,0.8-3.5,2l-0.2-1.7h-1.7V298h2v-8.2c0.8-1.2,1.6-2,2.9-2
				c1.1,0,1.8,0.5,1.8,2.2v8h2v-8.3C425.7,287.5,424.4,286.1,422.3,286.1z M438.5,285.1c-1.4,0.6-2.4,1.1-5.3,1
				c-2.6,0-4.5,1.7-4.5,4c0,1.5,0.6,2.5,2,3.2c-0.8,0.5-1.3,1.3-1.3,2c0,1.2,0.9,2.2,3,2.2h1.8c1.5,0,2.3,0.5,2.3,1.6
				c0,1.2-0.9,1.8-3.4,1.8c-2.6,0-3.1-0.6-3.1-1.9h-1.8c0,2.4,1.2,3.5,5,3.5c3.6,0,5.4-1.3,5.4-3.5c0-1.8-1.6-3.2-4-3.2h-1.8
				c-1.2,0-1.5-0.4-1.5-0.9c0-0.4,0.2-0.8,0.6-1.1c0.5,0.2,0.9,0.2,1.5,0.2c2.8,0,4.4-1.6,4.4-3.9c0-1.3-0.7-2.3-2-2.9
				c1.3,0,2.4,0,3.4-0.4L438.5,285.1z M433.2,287.6c1.6,0,2.5,0.9,2.5,2.6c0,1.7-0.9,2.6-2.4,2.6c-1.6,0-2.4-1.1-2.4-2.6
				C430.8,288.7,431.6,287.6,433.2,287.6z M441.7,295.2c-0.9,0-1.5,0.7-1.5,1.5c0,0.5,0.2,1,0.6,1.3l-0.9,3.7h1.5l1.5-3.4
				c0.3-0.6,0.4-1.1,0.4-1.6C443.2,295.9,442.6,295.2,441.7,295.2z M457.7,286.1c-1.5,0-2.6,0.7-3.4,1.9v-6.5l-2,0.2V298h2v-8.2
				c0.8-1.2,1.7-2,2.9-2c1.1,0,1.8,0.5,1.8,2.2v8h2v-8.3C461.1,287.5,459.8,286.1,457.7,286.1z"/>
		</g>
	</g>
	<g transform="matrix(4, 0, 0, 4, 0, 0)">
		<g>
			<path class="st0" d="M264.2,419.1c-2.4,0-4.2,1.3-4.2,3.2c0,1.6,1,2.7,3.5,3.4c2.2,0.6,2.8,1,2.8,2.2c0,1.1-1,1.8-2.5,1.8
				c-1.3,0-2.3-0.4-3.3-1.1l-1.1,1.2c1,0.9,2.4,1.5,4.4,1.5c2.4,0,4.6-1.1,4.6-3.5c0-2-1.4-3-3.9-3.6c-1.9-0.5-2.5-0.9-2.5-1.9
				c0-0.9,0.8-1.5,2.1-1.5c1.1,0,2,0.3,3,1l0.9-1.3C267.1,419.6,265.9,419.1,264.2,419.1z M279.2,428.3V423c0-2.4-1.3-3.9-4.1-3.9
				c-1.3,0-2.6,0.3-4,0.8l0.5,1.5c1.2-0.4,2.3-0.6,3.1-0.6c1.6,0,2.4,0.6,2.4,2.3v0.9h-1.8c-3.2,0-5.1,1.3-5.1,3.8
				c0,2.1,1.4,3.5,3.7,3.5c1.4,0,2.6-0.5,3.5-1.7c0.4,1.1,1.1,1.6,2.3,1.7l0.5-1.4C279.5,429.6,279.2,429.3,279.2,428.3z
				 M274.4,429.7c-1.3,0-2-0.7-2-2.1c0-1.6,1.1-2.4,3.2-2.4h1.5v2.7C276.5,429.2,275.6,429.7,274.4,429.7z M292.1,424.9
				c0-3.5-1.6-5.7-4.8-5.7c-3,0-4.8,2.6-4.8,6.2c0,3.7,1.9,5.9,5.1,5.9c1.6,0,2.9-0.6,4-1.5l-0.9-1.2c-1,0.7-1.9,1-3,1
				c-1.7,0-2.9-1-3.1-3.7h7.4C292.1,425.6,292.1,425.3,292.1,424.9z M290.1,424.4h-5.4c0.2-2.6,1.2-3.7,2.7-3.7
				c1.8,0,2.7,1.3,2.7,3.5V424.4z M300.9,419.1c-1.5,0-2.8,0.8-3.5,2l-0.2-1.7h-1.7V431h2v-8.2c0.8-1.2,1.6-2,2.9-2
				c1.1,0,1.8,0.5,1.8,2.2v8h2v-8.3C304.3,420.5,303,419.1,300.9,419.1z M310.3,414.5l-2,0.2V431h2V414.5z M317,419.4h-2.3l-4.3,5.3
				l4.6,6.3h2.4l-4.8-6.5L317,419.4z M323.9,419.1c-3.3,0-5.2,2.5-5.2,6.1c0,3.7,1.9,6.1,5.2,6.1c3.3,0,5.2-2.5,5.2-6.1
				C329.1,421.5,327.2,419.1,323.9,419.1z M323.9,420.8c1.9,0,3,1.4,3,4.4c0,3-1.1,4.4-3,4.4c-1.9,0-3-1.4-3-4.4
				C320.9,422.2,322,420.8,323.9,420.8z M333,428.2c-0.9,0-1.5,0.7-1.5,1.5c0,0.5,0.2,1,0.6,1.3l-0.9,3.7h1.5l1.5-3.4
				c0.3-0.6,0.4-1.1,0.4-1.6C334.5,428.9,333.8,428.2,333,428.2z M345.6,414.5l-2,0.2V431h2V414.5z M352.2,419.4H350l-4.3,5.3
				l4.6,6.3h2.4l-4.8-6.5L352.2,419.4z"/>
		</g>
	</g>
	<g transform="matrix(4, 0, 0, 4, 0, 0)">
		<g>
			<path class="st0" d="M363.3,190.1c-3.1,0-5.1,2.5-5.1,6.2c0,3.7,1.9,6,5.1,6c1.3,0,2.5-0.4,3.5-1.3l-0.9-1.3
				c-0.9,0.6-1.6,0.9-2.5,0.9c-1.8,0-3-1.3-3-4.3c0-3,1.1-4.4,3-4.4c1,0,1.7,0.3,2.5,0.9l1-1.3C365.8,190.5,364.7,190.1,363.3,190.1
				z M377.4,199.3V194c0-2.4-1.3-3.9-4.1-3.9c-1.3,0-2.6,0.3-4,0.8l0.5,1.5c1.2-0.4,2.3-0.6,3.1-0.6c1.6,0,2.4,0.6,2.4,2.3v0.9h-1.8
				c-3.2,0-5.1,1.3-5.1,3.8c0,2.1,1.4,3.5,3.7,3.5c1.4,0,2.6-0.5,3.5-1.7c0.4,1.1,1.1,1.6,2.3,1.7l0.5-1.4
				C377.8,200.6,377.4,200.3,377.4,199.3z M372.7,200.7c-1.3,0-2-0.7-2-2.1c0-1.6,1.1-2.4,3.2-2.4h1.5v2.7
				C374.7,200.2,373.9,200.7,372.7,200.7z M386.6,190.1c-1.4,0-2.5,0.9-3.1,2.6l-0.2-2.4h-1.7V202h2v-6.6c0.5-2.2,1.3-3.3,2.8-3.3
				c0.4,0,0.7,0,1,0.1l0.4-2C387.4,190.2,387,190.1,386.6,190.1z M398.7,190.4h-2v8.3c-0.7,1.2-1.6,2-2.9,2s-1.8-0.6-1.8-2.2v-8.1
				h-2v8.3c0,2.3,1.2,3.5,3.2,3.5c1.7,0,2.7-0.7,3.6-2.1l0.2,1.8h1.7V190.4z M410.7,199.3V194c0-2.4-1.3-3.9-4.1-3.9
				c-1.3,0-2.6,0.3-4,0.8l0.5,1.5c1.2-0.4,2.3-0.6,3.1-0.6c1.6,0,2.4,0.6,2.4,2.3v0.9h-1.8c-3.2,0-5.1,1.3-5.1,3.8
				c0,2.1,1.4,3.5,3.7,3.5c1.4,0,2.6-0.5,3.5-1.7c0.4,1.1,1.1,1.6,2.3,1.7l0.5-1.4C411.1,200.6,410.7,200.3,410.7,199.3z
				 M405.9,200.7c-1.3,0-2-0.7-2-2.1c0-1.6,1.1-2.4,3.2-2.4h1.5v2.7C408,200.2,407.1,200.7,405.9,200.7z M420.3,190.1
				c-1.5,0-2.8,0.8-3.5,2l-0.2-1.7h-1.7V202h2v-8.2c0.8-1.2,1.6-2,2.9-2c1.1,0,1.8,0.5,1.8,2.2v8h2v-8.3
				C423.7,191.5,422.4,190.1,420.3,190.1z M435.5,199.3V194c0-2.4-1.3-3.9-4.1-3.9c-1.3,0-2.6,0.3-4,0.8l0.5,1.5
				c1.2-0.4,2.3-0.6,3.1-0.6c1.6,0,2.4,0.6,2.4,2.3v0.9h-1.8c-3.2,0-5.1,1.3-5.1,3.8c0,2.1,1.4,3.5,3.7,3.5c1.4,0,2.6-0.5,3.5-1.7
				c0.4,1.1,1.1,1.6,2.3,1.7l0.5-1.4C435.9,200.6,435.5,200.3,435.5,199.3z M430.8,200.7c-1.3,0-2-0.7-2-2.1c0-1.6,1.1-2.4,3.2-2.4
				h1.5v2.7C432.9,200.2,432,200.7,430.8,200.7z M440.2,199.2c-0.9,0-1.5,0.7-1.5,1.5c0,0.5,0.2,1,0.6,1.3l-0.9,3.7h1.5l1.5-3.4
				c0.3-0.6,0.4-1.1,0.4-1.6C441.8,199.9,441.1,199.2,440.2,199.2z M455.8,190.1c-1.4,0-2.5,0.9-3.1,2.6l-0.2-2.4h-1.7V202h2v-6.6
				c0.5-2.2,1.3-3.3,2.8-3.3c0.4,0,0.7,0,1,0.1l0.4-2C456.6,190.2,456.2,190.1,455.8,190.1z"/>
		</g>
	</g>
	<g transform="matrix(4, 0, 0, 4, 0, 0)">
		<g>
			<path class="st0" d="M535.8,263.1c-1.4,0.6-2.4,1.1-5.3,1c-2.6,0-4.5,1.7-4.5,4c0,1.5,0.6,2.5,2,3.2c-0.8,0.5-1.3,1.3-1.3,2
				c0,1.2,0.9,2.2,3,2.2h1.8c1.5,0,2.3,0.5,2.3,1.6c0,1.2-0.9,1.8-3.4,1.8c-2.6,0-3.1-0.6-3.1-1.9h-1.8c0,2.4,1.2,3.5,5,3.5
				c3.6,0,5.4-1.3,5.4-3.5c0-1.8-1.6-3.2-4-3.2h-1.8c-1.2,0-1.5-0.4-1.5-0.9c0-0.4,0.2-0.8,0.6-1.1c0.5,0.2,0.9,0.2,1.5,0.2
				c2.8,0,4.4-1.6,4.4-3.9c0-1.3-0.7-2.3-2-2.9c1.3,0,2.4,0,3.4-0.4L535.8,263.1z M530.5,265.6c1.6,0,2.5,0.9,2.5,2.6
				c0,1.7-0.9,2.6-2.4,2.6s-2.4-1.1-2.4-2.6C528.1,266.7,529,265.6,530.5,265.6z M540.8,276.3c0.6,0,1.2-0.2,1.6-0.4l-0.5-1.4
				c-0.2,0.1-0.5,0.1-0.7,0.1c-0.5,0-0.7-0.3-0.7-0.9v-14.2l-2,0.2v14C538.4,275.4,539.4,276.3,540.8,276.3z M549.3,264.1
				c-3.3,0-5.2,2.5-5.2,6.1c0,3.7,1.9,6.1,5.2,6.1c3.3,0,5.2-2.5,5.2-6.1C554.5,266.5,552.6,264.1,549.3,264.1z M549.3,265.8
				c1.9,0,3,1.4,3,4.4c0,3-1.1,4.4-3,4.4c-1.9,0-3-1.4-3-4.4C546.3,267.2,547.4,265.8,549.3,265.8z M562.9,264.1
				c-1.4,0-2.5,0.9-3.1,2.6l-0.2-2.4h-1.7V276h2v-6.6c0.5-2.2,1.3-3.3,2.8-3.3c0.4,0,0.7,0,1,0.1l0.4-2
				C563.7,264.2,563.2,264.1,562.9,264.1z M570.7,264.1c-3.3,0-5.2,2.5-5.2,6.1c0,3.7,1.9,6.1,5.2,6.1c3.3,0,5.2-2.5,5.2-6.1
				C575.8,266.5,574,264.1,570.7,264.1z M570.7,265.8c1.9,0,3,1.4,3,4.4c0,3-1.1,4.4-3,4.4c-1.9,0-3-1.4-3-4.4
				C567.7,267.2,568.7,265.8,570.7,265.8z M584.2,274.1c-0.6,0.4-1,0.5-1.5,0.5c-1,0-1.4-0.6-1.4-1.7V266h2.5l0.2-1.6h-2.8v-2.9
				l-2,0.2v2.6h-2v1.6h2v7c0,2.2,1.2,3.3,3.1,3.3c1,0,1.8-0.3,2.6-0.8L584.2,274.1z M587.6,273.2c-0.9,0-1.5,0.7-1.5,1.5
				c0,0.5,0.2,1,0.6,1.3l-0.9,3.7h1.5l1.5-3.4c0.3-0.6,0.4-1.1,0.4-1.6C589.2,273.9,588.5,273.2,587.6,273.2z M602.7,269.8l3.6-5.4
				h-2.3l-2.4,4.2l-2.4-4.2h-2.4l3.6,5.5l-4,6.1h2.3l2.9-4.9l2.8,4.9h2.4L602.7,269.8z"/>
		</g>
	</g>
	<g transform="matrix(4, 0, 0, 4, 0, 0)">
		<g>
			<path class="st0" d="M268.5,203.6c-1.5,0-2.6,0.9-3.2,2.7l-0.2-2.5h-1.8V216h2.1v-6.9c0.5-2.3,1.4-3.4,2.9-3.4
				c0.4,0,0.7,0,1.1,0.1l0.4-2.1C269.3,203.6,268.8,203.6,268.5,203.6z M280.2,213.2v-5.5c0-2.5-1.3-4-4.3-4c-1.4,0-2.7,0.3-4.2,0.8
				l0.5,1.5c1.2-0.4,2.4-0.6,3.3-0.6c1.7,0,2.5,0.6,2.5,2.4v0.9h-1.9c-3.4,0-5.3,1.4-5.3,4c0,2.2,1.4,3.7,3.9,3.7
				c1.5,0,2.8-0.6,3.6-1.8c0.4,1.2,1.1,1.7,2.4,1.8l0.5-1.5C280.6,214.6,280.2,214.2,280.2,213.2z M275.3,214.7
				c-1.4,0-2.1-0.8-2.1-2.2c0-1.7,1.1-2.5,3.4-2.5h1.6v2.8C277.4,214.1,276.5,214.7,275.3,214.7z M285.6,198.1
				c-0.9,0-1.5,0.6-1.5,1.4c0,0.8,0.6,1.4,1.5,1.4c0.9,0,1.5-0.6,1.5-1.4C287.1,198.7,286.5,198.1,285.6,198.1z M286.7,203.9h-2.1
				V216h2.1V203.9z M296.8,203.6c-1.6,0-2.9,0.8-3.7,2.1l-0.2-1.8h-1.8V216h2.1v-8.6c0.8-1.3,1.7-2.1,3.1-2.1c1.2,0,1.9,0.5,1.9,2.3
				v8.4h2.1v-8.7C300.3,205,299,203.6,296.8,203.6z M312.7,213.2v-5.5c0-2.5-1.3-4-4.3-4c-1.4,0-2.7,0.3-4.2,0.8l0.5,1.5
				c1.2-0.4,2.4-0.6,3.3-0.6c1.7,0,2.5,0.6,2.5,2.4v0.9h-1.9c-3.4,0-5.3,1.4-5.3,4c0,2.2,1.4,3.7,3.9,3.7c1.5,0,2.8-0.6,3.6-1.8
				c0.4,1.2,1.1,1.7,2.4,1.8l0.5-1.5C313.1,214.6,312.7,214.2,312.7,213.2z M307.7,214.7c-1.4,0-2.1-0.8-2.1-2.2
				c0-1.7,1.1-2.5,3.4-2.5h1.6v2.8C309.9,214.1,309,214.7,307.7,214.7z M317.6,213.1c-0.9,0-1.6,0.7-1.6,1.6c0,0.6,0.3,1,0.6,1.3
				l-0.9,3.8h1.5l1.5-3.5c0.3-0.7,0.4-1.1,0.4-1.6C319.2,213.8,318.5,213.1,317.6,213.1z M333.9,203.6c-1.5,0-2.6,0.9-3.2,2.7
				l-0.2-2.5h-1.8V216h2.1v-6.9c0.5-2.3,1.4-3.4,2.9-3.4c0.4,0,0.7,0,1.1,0.1l0.4-2.1C334.8,203.6,334.3,203.6,333.9,203.6z"/>
		</g>
	</g>
	<g transform="matrix(4, 0, 0, 4, 0, 0)">
		<g>
			<path class="st0" d="M744.3,272.9h-8.2v1.8h5.8l-6.3,8.7v1.6h8.5l0.3-1.8H738l6.3-8.7V272.9z M756.4,278.6c0-3.7-1.7-6-5-6
				c-3.1,0-5,2.7-5,6.5c0,3.8,2,6.2,5.4,6.2c1.7,0,3-0.6,4.2-1.5l-0.9-1.3c-1.1,0.7-2,1.1-3.2,1.1c-1.7,0-3.1-1.1-3.3-3.9h7.7
				C756.4,279.4,756.4,279,756.4,278.6z M754.3,278.1h-5.7c0.2-2.7,1.2-3.8,2.8-3.8c1.9,0,2.9,1.3,2.9,3.7V278.1z M760.9,267.1
				c-0.9,0-1.5,0.6-1.5,1.4c0,0.8,0.6,1.4,1.5,1.4c0.9,0,1.5-0.6,1.5-1.4C762.4,267.7,761.8,267.1,760.9,267.1z M762,272.9h-2.1V285
				h2.1V272.9z M768.8,285.3c0.6,0,1.2-0.2,1.7-0.4l-0.6-1.5c-0.2,0.1-0.5,0.1-0.8,0.1c-0.6,0-0.8-0.3-0.8-1v-14.8l-2.1,0.3v14.6
				C766.3,284.3,767.2,285.3,768.8,285.3z M782.3,278.6c0-3.7-1.7-6-5-6c-3.1,0-5,2.7-5,6.5c0,3.8,2,6.2,5.4,6.2
				c1.7,0,3-0.6,4.2-1.5l-0.9-1.3c-1.1,0.7-2,1.1-3.2,1.1c-1.7,0-3.1-1.1-3.3-3.9h7.7C782.2,279.4,782.3,279,782.3,278.6z
				 M780.2,278.1h-5.7c0.2-2.7,1.2-3.8,2.8-3.8c1.9,0,2.9,1.3,2.9,3.7V278.1z M791,272.6c-1.5,0-2.6,0.9-3.2,2.7l-0.2-2.5h-1.8V285
				h2.1v-6.9c0.5-2.3,1.4-3.4,2.9-3.4c0.4,0,0.7,0,1.1,0.1l0.4-2.1C791.9,272.6,791.4,272.6,791,272.6z M795.2,282.1
				c-0.9,0-1.6,0.7-1.6,1.6c0,0.6,0.3,1,0.6,1.3l-0.9,3.8h1.5l1.5-3.5c0.3-0.7,0.4-1.1,0.4-1.6C796.8,282.8,796.1,282.1,795.2,282.1
				z M818.4,272.6c-1.6,0-2.7,0.9-3.6,2.2c-0.5-1.4-1.6-2.2-3.1-2.2c-1.6,0-2.7,0.8-3.5,2l-0.2-1.8h-1.8V285h2.1v-8.6
				c0.8-1.3,1.5-2.1,2.9-2.1c0.9,0,1.7,0.5,1.7,2.3v8.4h2.1v-8.6c0.8-1.3,1.5-2.1,2.9-2.1c0.9,0,1.7,0.5,1.7,2.3v8.4h2.1v-8.7
				C821.7,274,820.4,272.6,818.4,272.6z M833.2,267.8v6.3c-0.8-0.9-1.8-1.5-3.3-1.5c-3,0-4.8,2.7-4.8,6.4c0,3.8,1.6,6.3,4.6,6.3
				c1.5,0,2.7-0.7,3.5-2l0.2,1.7h1.9v-17L833.2,267.8z M830.2,283.6c-1.7,0-2.8-1.4-2.8-4.6c0-3.2,1.1-4.7,2.9-4.7
				c1.2,0,2,0.6,2.8,1.6v5.9C832.4,282.9,831.6,283.6,830.2,283.6z"/>
		</g>
	</g>
	<g transform="matrix(4, 0, 0, 4, 0, 0)">
		<g>
			<path class="st0" d="M163.3,402.5c-1.4,0.6-2.5,1.1-5.5,1.1c-2.7,0-4.7,1.7-4.7,4.2c0,1.6,0.6,2.6,2,3.4
				c-0.9,0.6-1.3,1.4-1.3,2.1c0,1.2,1,2.3,3.1,2.3h1.9c1.5,0,2.4,0.6,2.4,1.7c0,1.2-0.9,1.9-3.5,1.9c-2.7,0-3.3-0.6-3.3-2h-1.9
				c0,2.5,1.2,3.7,5.2,3.7c3.7,0,5.7-1.3,5.7-3.7c0-1.9-1.7-3.4-4.1-3.4h-1.9c-1.2,0-1.6-0.4-1.6-1c0-0.4,0.3-0.9,0.6-1.1
				c0.5,0.2,1,0.2,1.5,0.2c2.9,0,4.6-1.7,4.6-4.1c0-1.4-0.7-2.4-2.1-3.1c1.4,0,2.5,0,3.5-0.4L163.3,402.5z M157.8,405.1
				c1.7,0,2.6,0.9,2.6,2.7c0,1.7-0.9,2.8-2.6,2.8c-1.7,0-2.6-1.1-2.6-2.7C155.3,406.2,156.2,405.1,157.8,405.1z M170.7,403.6
				c-3.4,0-5.4,2.6-5.4,6.3c0,3.8,2,6.3,5.4,6.3c3.4,0,5.4-2.6,5.4-6.3C176.1,406.1,174.1,403.6,170.7,403.6z M170.7,405.3
				c2,0,3.1,1.5,3.1,4.6c0,3.2-1.1,4.6-3.1,4.6s-3.1-1.5-3.1-4.6C167.5,406.8,168.7,405.3,170.7,405.3z M185.3,403.6
				c-1.6,0-2.9,0.8-3.7,2.1l-0.2-1.8h-1.8V416h2.1v-8.6c0.8-1.3,1.7-2.1,3.1-2.1c1.2,0,1.9,0.5,1.9,2.3v8.4h2.1v-8.7
				C188.8,405,187.5,403.6,185.3,403.6z M202.2,402.5c-1.4,0.6-2.5,1.1-5.5,1.1c-2.7,0-4.7,1.7-4.7,4.2c0,1.6,0.6,2.6,2,3.4
				c-0.9,0.6-1.3,1.4-1.3,2.1c0,1.2,1,2.3,3.1,2.3h1.9c1.5,0,2.4,0.6,2.4,1.7c0,1.2-0.9,1.9-3.5,1.9c-2.7,0-3.3-0.6-3.3-2h-1.9
				c0,2.5,1.2,3.7,5.2,3.7c3.7,0,5.7-1.3,5.7-3.7c0-1.9-1.7-3.4-4.1-3.4h-1.9c-1.2,0-1.6-0.4-1.6-1c0-0.4,0.3-0.9,0.6-1.1
				c0.5,0.2,1,0.2,1.5,0.2c2.9,0,4.6-1.7,4.6-4.1c0-1.4-0.7-2.4-2.1-3.1c1.4,0,2.5,0,3.5-0.4L202.2,402.5z M196.7,405.1
				c1.7,0,2.6,0.9,2.6,2.7c0,1.7-0.9,2.8-2.6,2.8c-1.7,0-2.6-1.1-2.6-2.7C194.2,406.2,195,405.1,196.7,405.1z M205.6,413.1
				c-0.9,0-1.6,0.7-1.6,1.6c0,0.6,0.3,1,0.6,1.3l-0.9,3.8h1.5l1.5-3.5c0.3-0.7,0.4-1.1,0.4-1.6C207.2,413.8,206.5,413.1,205.6,413.1
				z M222.2,403.6c-1.5,0-2.6,0.7-3.4,1.8v-6.6l-2.1,0.3v17h1.9l0.2-1.3c0.8,1,1.9,1.6,3.2,1.6c2.9,0,4.8-2.6,4.8-6.3
				C226.7,405.9,224.9,403.6,222.2,403.6z M221.4,414.6c-1.1,0-2-0.7-2.7-1.6v-5.8c0.6-1,1.5-1.9,2.8-1.9c1.7,0,2.8,1.2,2.8,4.6
				C224.4,413.2,223.2,414.6,221.4,414.6z M237.7,403.9l-0.2,1.4c-0.8-0.9-1.9-1.6-3.4-1.6c-3,0-4.8,2.7-4.8,6.4
				c0,3.8,1.6,6.3,4.6,6.3c1.5,0,2.7-0.7,3.4-1.9v6.3l2.1,0.3v-17H237.7z M234.5,414.6c-1.7,0-2.8-1.4-2.8-4.6
				c0-3.2,1.1-4.7,2.9-4.7c1.2,0,2,0.6,2.8,1.6v5.9C236.6,413.9,235.8,414.6,234.5,414.6z"/>
		</g>
	</g>
	<g transform="matrix(4, 0, 0, 4, 0, 0)">
		<g>
			<path class="st0" d="M302.1,375.9h-2.2l-3.2,10.6l-3.2-10.6h-2.3l4.1,12.1h0.7c-0.7,1.9-1.4,2.8-3.8,3.2l0.2,1.7
				c3.4-0.4,4.8-2.3,5.6-4.8L302.1,375.9z M312.7,385.2v-5.5c0-2.5-1.3-4-4.3-4c-1.4,0-2.7,0.3-4.2,0.8l0.5,1.5
				c1.2-0.4,2.4-0.6,3.3-0.6c1.7,0,2.5,0.6,2.5,2.4v0.9h-1.9c-3.4,0-5.3,1.4-5.3,4c0,2.2,1.4,3.7,3.9,3.7c1.5,0,2.8-0.6,3.6-1.8
				c0.4,1.2,1.1,1.7,2.4,1.8l0.5-1.5C313.1,386.6,312.7,386.2,312.7,385.2z M307.7,386.7c-1.4,0-2.1-0.8-2.1-2.2
				c0-1.7,1.1-2.5,3.4-2.5h1.6v2.8C309.9,386.1,308.9,386.7,307.7,386.7z M322.7,375.6c-1.6,0-2.9,0.8-3.7,2.1l-0.2-1.8H317V388h2.1
				v-8.6c0.8-1.3,1.7-2.1,3.1-2.1c1.2,0,1.9,0.5,1.9,2.3v8.4h2.1v-8.7C326.2,377,324.9,375.6,322.7,375.6z M339.6,374.5
				c-1.4,0.6-2.5,1.1-5.5,1.1c-2.7,0-4.7,1.7-4.7,4.2c0,1.6,0.6,2.6,2,3.4c-0.9,0.6-1.3,1.4-1.3,2.1c0,1.2,1,2.3,3.1,2.3h1.9
				c1.5,0,2.4,0.6,2.4,1.7c0,1.2-0.9,1.9-3.5,1.9c-2.7,0-3.3-0.6-3.3-2h-1.9c0,2.5,1.2,3.7,5.2,3.7c3.7,0,5.7-1.3,5.7-3.7
				c0-1.9-1.7-3.4-4.1-3.4h-1.9c-1.2,0-1.6-0.4-1.6-1c0-0.4,0.3-0.9,0.6-1.1c0.5,0.2,1,0.2,1.5,0.2c2.9,0,4.6-1.7,4.6-4.1
				c0-1.4-0.7-2.4-2.1-3.1c1.4,0,2.5,0,3.5-0.4L339.6,374.5z M334.1,377.1c1.7,0,2.6,0.9,2.6,2.7c0,1.7-0.9,2.8-2.6,2.8
				c-1.7,0-2.6-1.1-2.6-2.7C331.6,378.2,332.5,377.1,334.1,377.1z M343,385.1c-0.9,0-1.6,0.7-1.6,1.6c0,0.6,0.3,1,0.6,1.3l-0.9,3.8
				h1.5l1.5-3.5c0.3-0.7,0.4-1.1,0.4-1.6C344.6,385.8,343.9,385.1,343,385.1z M355.1,370.1c-0.9,0-1.5,0.6-1.5,1.4
				c0,0.8,0.6,1.4,1.5,1.4c0.9,0,1.5-0.6,1.5-1.4C356.6,370.7,356,370.1,355.1,370.1z M356.1,375.9H354v11.5c0,2.6-0.8,3.2-2.3,3.9
				l0.6,1.5c2.6-1.1,3.8-2.2,3.8-5.6V375.9z"/>
		</g>
	</g>
	<g transform="matrix(4, 0, 0, 4, 0, 0)">
		<g>
			<path class="st0" d="M372.6,403.3c0.6,0,1.2-0.2,1.7-0.4l-0.6-1.5c-0.2,0.1-0.5,0.1-0.8,0.1c-0.6,0-0.8-0.3-0.8-1v-14.8l-2.1,0.3
				v14.6C370.1,402.3,371.1,403.3,372.6,403.3z M381.5,390.6c-3.5,0-5.4,2.6-5.4,6.3c0,3.8,2,6.3,5.4,6.3c3.4,0,5.4-2.6,5.4-6.3
				C386.9,393.1,384.9,390.6,381.5,390.6z M381.5,392.3c2,0,3.1,1.5,3.1,4.6c0,3.2-1.1,4.6-3.1,4.6c-2,0-3.1-1.5-3.1-4.6
				C378.3,393.8,379.5,392.3,381.5,392.3z M396.1,390.6c-1.6,0-2.9,0.8-3.7,2.1l-0.2-1.8h-1.8V403h2.1v-8.6c0.8-1.3,1.7-2.1,3.1-2.1
				c1.2,0,1.9,0.5,1.9,2.3v8.4h2.1v-8.7C399.6,392,398.3,390.6,396.1,390.6z M413,389.5c-1.4,0.6-2.5,1.1-5.5,1.1
				c-2.7,0-4.7,1.7-4.7,4.2c0,1.6,0.6,2.6,2,3.4c-0.9,0.6-1.3,1.4-1.3,2.1c0,1.2,1,2.3,3.1,2.3h1.9c1.5,0,2.4,0.6,2.4,1.7
				c0,1.2-0.9,1.9-3.5,1.9c-2.7,0-3.3-0.6-3.3-2h-1.9c0,2.5,1.2,3.7,5.2,3.7c3.7,0,5.7-1.3,5.7-3.7c0-1.9-1.7-3.4-4.1-3.4H407
				c-1.2,0-1.6-0.4-1.6-1c0-0.4,0.3-0.9,0.6-1.1c0.5,0.2,1,0.2,1.5,0.2c2.9,0,4.6-1.7,4.6-4.1c0-1.4-0.7-2.4-2.1-3.1
				c1.4,0,2.5,0,3.5-0.4L413,389.5z M407.4,392.1c1.7,0,2.6,0.9,2.6,2.7c0,1.7-0.9,2.8-2.6,2.8c-1.7,0-2.6-1.1-2.6-2.7
				C404.9,393.2,405.8,392.1,407.4,392.1z M416.3,400.1c-0.9,0-1.6,0.7-1.6,1.6c0,0.6,0.3,1,0.6,1.3l-0.9,3.8h1.5l1.5-3.5
				c0.3-0.7,0.4-1.1,0.4-1.6C418,400.8,417.3,400.1,416.3,400.1z M439.6,390.6c-1.6,0-2.7,0.9-3.6,2.2c-0.5-1.4-1.6-2.2-3.1-2.2
				c-1.6,0-2.7,0.8-3.5,2l-0.2-1.8h-1.8V403h2.1v-8.6c0.8-1.3,1.5-2.1,2.9-2.1c0.9,0,1.7,0.5,1.7,2.3v8.4h2.1v-8.6
				c0.8-1.3,1.5-2.1,2.9-2.1c0.9,0,1.7,0.5,1.7,2.3v8.4h2.1v-8.7C442.9,392,441.6,390.6,439.6,390.6z"/>
		</g>
	</g>
	<g transform="matrix(4, 0, 0, 4, 0, 0)">
		<g>
			<path class="st0" d="M124.9,235v6.6c-0.8-0.9-1.9-1.6-3.4-1.6c-3.1,0-5,2.8-5,6.7c0,3.9,1.7,6.6,4.8,6.6c1.6,0,2.8-0.8,3.6-2
				l0.2,1.8h1.9v-17.7L124.9,235z M121.7,251.5c-1.8,0-2.9-1.5-2.9-4.8c0-3.3,1.2-4.9,3.1-4.9c1.2,0,2.1,0.6,2.9,1.7v6.2
				C124,250.8,123.2,251.5,121.7,251.5z M140.2,250v-5.8c0-2.6-1.4-4.2-4.4-4.2c-1.4,0-2.8,0.3-4.4,0.9l0.6,1.6
				c1.3-0.4,2.5-0.7,3.4-0.7c1.8,0,2.6,0.7,2.6,2.5v0.9H136c-3.5,0-5.6,1.5-5.6,4.2c0,2.3,1.5,3.8,4,3.8c1.5,0,2.9-0.6,3.8-1.9
				c0.4,1.2,1.2,1.8,2.5,1.9l0.5-1.5C140.6,251.5,140.2,251.2,140.2,250z M135,251.6c-1.4,0-2.2-0.8-2.2-2.3c0-1.7,1.2-2.6,3.5-2.6
				h1.7v2.9C137.2,251,136.3,251.6,135,251.6z M145.8,234.3c-0.9,0-1.5,0.6-1.5,1.5c0,0.8,0.6,1.5,1.5,1.5c0.9,0,1.6-0.6,1.6-1.5
				C147.3,234.9,146.7,234.3,145.8,234.3z M146.9,240.4h-2.2V253h2.2V240.4z M152,250c-0.9,0-1.7,0.7-1.7,1.7c0,0.6,0.3,1.1,0.7,1.4
				l-1,4h1.6l1.6-3.7c0.3-0.7,0.4-1.2,0.4-1.7C153.7,250.7,153,250,152,250z M178,240.4h-2.1l-2.3,11.1l-2.4-11.1h-2.5l-2.5,11.1
				l-2.3-11.1h-2.2l3,12.6h2.9l2.3-10.7l2.2,10.7h3L178,240.4z"/>
		</g>
	</g>
	<g transform="matrix(4, 0, 0, 4, 0, 0)">
		<g>
			<path class="st0" d="M233.8,166.9c-0.6,0.4-1.1,0.6-1.7,0.6c-1.1,0-1.5-0.6-1.5-1.9v-7.5h2.8l0.2-1.7h-3v-3.1l-2.2,0.3v2.9h-2.2
				v1.7h2.2v7.6c0,2.4,1.3,3.6,3.4,3.6c1.1,0,2-0.3,2.8-0.9L233.8,166.9z M245.5,166v-5.8c0-2.6-1.4-4.2-4.4-4.2
				c-1.4,0-2.8,0.3-4.4,0.9l0.6,1.6c1.3-0.4,2.5-0.7,3.4-0.7c1.8,0,2.6,0.7,2.6,2.5v0.9h-1.9c-3.5,0-5.6,1.5-5.6,4.2
				c0,2.3,1.5,3.8,4,3.8c1.5,0,2.9-0.6,3.8-1.9c0.4,1.2,1.2,1.8,2.5,1.9l0.5-1.5C245.9,167.5,245.5,167.2,245.5,166z M240.3,167.6
				c-1.4,0-2.2-0.8-2.2-2.3c0-1.7,1.2-2.6,3.5-2.6h1.7v2.9C242.5,167,241.6,167.6,240.3,167.6z M259.3,156.4H257l-3.3,11l-3.4-11
				H248l4.2,12.6h0.7c-0.7,2-1.4,3-4,3.4l0.2,1.7c3.5-0.4,5-2.4,5.9-5L259.3,156.4z M264.3,169.3c0.6,0,1.3-0.2,1.8-0.4l-0.6-1.5
				c-0.2,0.1-0.5,0.1-0.8,0.1c-0.6,0-0.8-0.3-0.8-1V151l-2.2,0.3v15.2C261.7,168.3,262.7,169.3,264.3,169.3z M273.6,156.1
				c-3.6,0-5.7,2.7-5.7,6.6c0,4,2,6.6,5.6,6.6c3.6,0,5.6-2.7,5.6-6.6C279.2,158.7,277.2,156.1,273.6,156.1z M273.6,157.8
				c2.1,0,3.2,1.5,3.2,4.8c0,3.3-1.2,4.8-3.3,4.8s-3.3-1.5-3.3-4.8C270.3,159.4,271.5,157.8,273.6,157.8z M288.4,156.1
				c-1.5,0-2.7,1-3.4,2.9l-0.2-2.6h-1.9V169h2.2v-7.2c0.5-2.4,1.4-3.6,3-3.6c0.5,0,0.7,0,1.1,0.1l0.4-2.2
				C289.2,156.1,288.8,156.1,288.4,156.1z M292.7,166c-0.9,0-1.7,0.7-1.7,1.7c0,0.6,0.3,1.1,0.7,1.4l-1,4h1.6l1.6-3.7
				c0.3-0.7,0.4-1.2,0.4-1.7C294.4,166.7,293.7,166,292.7,166z M316.9,156.1c-1.7,0-2.9,0.9-3.8,2.3c-0.5-1.4-1.6-2.3-3.2-2.3
				c-1.7,0-2.8,0.9-3.6,2.1l-0.2-1.8h-1.9V169h2.2v-9c0.8-1.3,1.6-2.2,3-2.2c1,0,1.8,0.6,1.8,2.4v8.8h2.2v-9c0.9-1.3,1.6-2.2,3-2.2
				c1,0,1.8,0.6,1.8,2.4v8.8h2.2v-9.1C320.4,157.6,319,156.1,316.9,156.1z M334.4,162.3c0-3.9-1.8-6.2-5.2-6.2
				c-3.3,0-5.3,2.8-5.3,6.7c0,4,2.1,6.5,5.6,6.5c1.8,0,3.2-0.6,4.4-1.6l-1-1.3c-1.1,0.8-2,1.1-3.3,1.1c-1.8,0-3.2-1.1-3.4-4.1h8.1
				C334.3,163.1,334.4,162.7,334.4,162.3z M332.2,161.8h-5.9c0.2-2.8,1.3-4,3-4c2,0,3,1.4,3,3.8V161.8z"/>
		</g>
	</g>
	<g transform="matrix(4, 0, 0, 4, 0, 0)">
		<g>
			<path class="st0" d="M106.1,285.1c-1.5,0-2.7,0.7-3.6,1.9V280l-2.2,0.3V298h1.9l0.2-1.4c0.9,1.1,2,1.7,3.4,1.7c3.1,0,5-2.7,5-6.6
				C110.8,287.4,108.9,285.1,106.1,285.1z M105.3,296.5c-1.1,0-2.1-0.7-2.8-1.7v-6c0.6-1,1.6-2,3-2c1.8,0,3,1.2,3,4.8
				C108.4,295.1,107.1,296.5,105.3,296.5z M117.1,298.3c0.6,0,1.3-0.2,1.8-0.4l-0.6-1.5c-0.2,0.1-0.5,0.1-0.8,0.1
				c-0.6,0-0.8-0.3-0.8-1V280l-2.2,0.3v15.2C114.4,297.3,115.4,298.3,117.1,298.3z M122.6,279.3c-0.9,0-1.5,0.6-1.5,1.5
				c0,0.8,0.6,1.5,1.5,1.5c0.9,0,1.6-0.6,1.6-1.5C124.2,279.9,123.6,279.3,122.6,279.3z M123.8,285.4h-2.2V298h2.2V285.4z
				 M133.9,295.9c-0.6,0.4-1.1,0.6-1.7,0.6c-1.1,0-1.5-0.6-1.5-1.9v-7.5h2.8l0.2-1.7h-3v-3.1l-2.2,0.3v2.9h-2.2v1.7h2.2v7.6
				c0,2.4,1.3,3.6,3.4,3.6c1.1,0,2-0.3,2.8-0.9L133.9,295.9z M144.4,285.4h-8.5v1.9h6l-6.6,9.1v1.7h8.9l0.3-1.8h-6.7l6.6-9.1V285.4z
				 M157,291.3c0-3.9-1.8-6.2-5.2-6.2c-3.3,0-5.3,2.8-5.3,6.7c0,4,2.1,6.5,5.6,6.5c1.8,0,3.2-0.6,4.4-1.6l-1-1.3
				c-1.1,0.8-2,1.1-3.3,1.1c-1.8,0-3.2-1.1-3.4-4.1h8.1C157,292.1,157,291.7,157,291.3z M154.9,290.8h-5.9c0.2-2.8,1.3-4,3-4
				c2,0,3,1.4,3,3.8V290.8z M166.2,285.1c-1.5,0-2.7,1-3.4,2.9l-0.2-2.6h-1.9V298h2.2v-7.2c0.5-2.4,1.4-3.6,3-3.6
				c0.5,0,0.7,0,1.1,0.1l0.4-2.2C167,285.1,166.6,285.1,166.2,285.1z M170.5,295c-0.9,0-1.7,0.7-1.7,1.7c0,0.6,0.3,1.1,0.7,1.4l-1,4
				h1.6l1.6-3.7c0.3-0.7,0.4-1.2,0.4-1.7C172.2,295.7,171.5,295,170.5,295z M183.1,279.3c-0.9,0-1.5,0.6-1.5,1.5
				c0,0.8,0.6,1.5,1.5,1.5c0.9,0,1.6-0.6,1.6-1.5C184.7,279.9,184.1,279.3,183.1,279.3z M184.2,285.4H182v12c0,2.7-0.8,3.3-2.4,4.1
				l0.6,1.6c2.7-1.2,4-2.3,4-5.9V285.4z"/>
		</g>
	</g>
	<g transform="matrix(4, 0, 0, 4, 0, 0)">
		<g>
			<path class="st0" d="M166.1,354.8v7.5c-0.9-1-2.2-1.8-3.8-1.8c-3.5,0-5.6,3.2-5.6,7.5c0,4.4,1.9,7.4,5.4,7.4
				c1.8,0,3.2-0.9,4.1-2.3l0.2,2h2.2v-20L166.1,354.8z M162.6,373.4c-2.1,0-3.2-1.7-3.2-5.5c0-3.7,1.3-5.5,3.5-5.5
				c1.4,0,2.4,0.7,3.3,1.9v7C165.2,372.6,164.2,373.4,162.6,373.4z M184.3,360.8h-2.5v10.2c-0.9,1.4-2,2.5-3.6,2.5s-2.2-0.7-2.2-2.7
				v-9.9h-2.5V371c0,2.8,1.5,4.3,4,4.3c2,0,3.3-0.8,4.4-2.5l0.2,2.2h2.1V360.8z M199,371.7v-6.5c0-3-1.6-4.7-5-4.7
				c-1.6,0-3.2,0.3-4.9,1l0.6,1.8c1.5-0.5,2.8-0.8,3.8-0.8c2,0,3,0.8,3,2.8v1.1h-2.2c-4,0-6.3,1.6-6.3,4.7c0,2.5,1.7,4.3,4.5,4.3
				c1.7,0,3.2-0.6,4.2-2.1c0.4,1.4,1.3,2,2.8,2.1l0.6-1.7C199.5,373.3,199,372.9,199,371.7z M193.2,373.5c-1.6,0-2.5-0.9-2.5-2.6
				c0-1.9,1.3-2.9,3.9-2.9h1.9v3.3C195.7,372.7,194.6,373.5,193.2,373.5z M210.8,360.4c-1.9,0-3.4,1-4.3,2.4l-0.2-2.1h-2.1V375h2.5
				v-10.1c0.9-1.5,2-2.5,3.6-2.5c1.4,0,2.2,0.6,2.2,2.8v9.9h2.5v-10.2C214.9,362.1,213.4,360.4,210.8,360.4z M220.6,371.6
				c-1.1,0-1.9,0.8-1.9,1.9c0,0.6,0.3,1.2,0.8,1.6l-1.1,4.5h1.8l1.8-4.1c0.4-0.8,0.5-1.3,0.5-1.9
				C222.5,372.4,221.7,371.6,220.6,371.6z M236.4,375.3c0.7,0,1.4-0.2,2-0.5l-0.6-1.7c-0.3,0.1-0.6,0.2-0.9,0.2
				c-0.6,0-0.9-0.4-0.9-1.1v-17.4l-2.5,0.3v17.1C233.4,374.2,234.6,375.3,236.4,375.3z M246.9,367.4l4.4-6.6h-2.8l-3,5.2l-3-5.2
				h-2.9l4.4,6.7l-5,7.5h2.8l3.5-6l3.5,6h3L246.9,367.4z"/>
		</g>
	</g>
	<g transform="matrix(4, 0, 0, 4, 0, 0)">
		<g>
			<path class="st0" d="M628,295.4c0.8,0,1.6-0.2,2.2-0.5l-0.7-1.9c-0.3,0.1-0.6,0.2-1,0.2c-0.7,0-1-0.4-1-1.3v-19.3l-2.8,0.3v19.1
				C624.7,294.1,626,295.4,628,295.4z M645.6,286.6c0-4.8-2.2-7.8-6.5-7.8c-4.1,0-6.6,3.5-6.6,8.4c0,5,2.6,8.1,7,8.1
				c2.2,0,4-0.8,5.5-2l-1.2-1.6c-1.4,1-2.6,1.4-4.1,1.4c-2.3,0-4-1.4-4.3-5.1h10.1C645.5,287.7,645.6,287.2,645.6,286.6z M642.8,286
				h-7.4c0.2-3.5,1.6-5,3.7-5c2.5,0,3.7,1.7,3.7,4.8V286z M655.9,278.8c-4.3,0-6.9,3.4-6.9,8.4c0,5.1,2.6,8.1,6.9,8.1
				c1.8,0,3.4-0.6,4.8-1.7l-1.3-1.8c-1.2,0.8-2.1,1.2-3.5,1.2c-2.5,0-4-1.7-4-5.8c0-4.1,1.6-6.1,4-6.1c1.3,0,2.3,0.4,3.4,1.2
				l1.3-1.7C659.3,279.3,657.8,278.8,655.9,278.8z M676.2,279.2h-2.8v11.3c-1,1.6-2.2,2.7-4,2.7c-1.7,0-2.4-0.8-2.4-3v-11h-2.8v11.3
				c0,3.1,1.6,4.8,4.4,4.8c2.2,0,3.7-0.9,4.9-2.8l0.2,2.5h2.4V279.2z M689.4,278.8c-2.1,0-3.8,1.1-4.8,2.7l-0.2-2.3h-2.4V295h2.8
				v-11.2c1-1.7,2.2-2.8,4-2.8c1.5,0,2.5,0.7,2.5,3.1v11h2.8v-11.3C694,280.7,692.3,278.8,689.4,278.8z M700.2,291.2
				c-1.2,0-2.1,0.9-2.1,2.1c0,0.7,0.3,1.3,0.8,1.7l-1.2,5h2l2-4.6c0.4-0.9,0.5-1.5,0.5-2.1C702.3,292.1,701.4,291.2,700.2,291.2z
				 M726.3,279.2h-2.9l-4.1,13.8l-4.2-13.8h-2.9l5.3,15.8h0.9c-0.9,2.5-1.8,3.7-5,4.2l0.3,2.2c4.4-0.5,6.2-2.9,7.3-6.3L726.3,279.2z
				"/>
		</g>
	</g>
	<g transform="matrix(4, 0, 0, 4, 0, 0)">
		<g>
			<path class="st0" d="M581.4,327.5l-3.1,0.4V353h3.1V327.5z M591.7,335.1h-3.5l-6.6,8.1l7.1,9.8h3.7l-7.3-10L591.7,335.1z
				 M603.4,334.7c-2.2,0-3.8,1.4-4.8,4l-0.3-3.6h-2.7V353h3.1v-10.2c0.7-3.4,2-5,4.3-5c0.6,0,1,0.1,1.6,0.2l0.6-3.1
				C604.6,334.7,604,334.7,603.4,334.7z M610.3,326.5c-1.3,0-2.2,0.9-2.2,2.1c0,1.2,0.9,2.1,2.2,2.1c1.3,0,2.2-0.9,2.2-2.1
				C612.5,327.4,611.6,326.5,610.3,326.5z M611.9,335.1h-3.1V353h3.1V335.1z M628.9,335.1h-12.1v2.7h8.5l-9.3,12.9v2.3h12.6l0.4-2.6
				h-9.5l9.4-12.9V335.1z M641.6,334.7c-2.2,0-4,1.1-5.3,2.9v-10l-3.1,0.3V353h3.1v-12.8c1.2-1.9,2.6-3.1,4.5-3.1
				c1.7,0,2.9,0.8,2.9,3.5V353h3.1v-12.9C646.8,336.8,644.9,334.7,641.6,334.7z M666.7,343.5c0-5.5-2.6-8.8-7.4-8.8
				c-4.6,0-7.4,4-7.4,9.6c0,5.7,2.9,9.2,7.9,9.2c2.5,0,4.5-0.8,6.3-2.2l-1.4-1.9c-1.6,1.1-2.9,1.6-4.7,1.6c-2.6,0-4.5-1.6-4.8-5.7
				h11.4C666.6,344.7,666.7,344.1,666.7,343.5z M663.6,342.8h-8.4c0.2-4,1.8-5.6,4.2-5.6c2.8,0,4.2,1.9,4.2,5.4V342.8z M685,335.1
				h-3.3l-4.7,15.1l-4.7-15.1h-3.4l6.2,17.9h3.8L685,335.1z M693.4,334.7c-3.7,0-6.5,2.1-6.5,4.9c0,2.5,1.5,4.2,5.4,5.2
				c3.5,0.9,4.4,1.6,4.4,3.4c0,1.7-1.5,2.7-3.8,2.7c-1.9,0-3.6-0.6-5-1.7l-1.7,1.9c1.6,1.4,3.7,2.3,6.8,2.3c3.6,0,7.1-1.7,7.1-5.4
				c0-3.1-2.2-4.6-6-5.6c-2.9-0.7-3.8-1.4-3.8-2.9c0-1.4,1.3-2.3,3.3-2.3c1.7,0,3.1,0.5,4.7,1.5l1.3-2
				C697.8,335.4,695.9,334.7,693.4,334.7z M707.6,327.5l-3.1,0.4V353h3.1V327.5z M717.9,335.1h-3.5l-6.6,8.1l7.1,9.8h3.7l-7.3-10
				L717.9,335.1z M735,335.1h-3.2l-4.7,15.6l-4.8-15.6H719l6,17.9h1.1c-1,2.8-2,4.2-5.7,4.8l0.3,2.4c5-0.5,7.1-3.3,8.3-7.1
				L735,335.1z M739.4,348.7c-1.3,0-2.3,1.1-2.3,2.3c0,0.8,0.4,1.5,1,2l-1.4,5.6h2.2l2.3-5.2c0.4-1,0.6-1.7,0.6-2.4
				C741.8,349.7,740.8,348.7,739.4,348.7z M767.8,348.8v-8.2c0-3.7-2-5.9-6.3-5.9c-2,0-4,0.4-6.2,1.2l0.8,2.3c1.8-0.6,3.5-1,4.8-1
				c2.5,0,3.7,1,3.7,3.5v1.3h-2.8c-5,0-7.9,2.1-7.9,5.9c0,3.2,2.1,5.4,5.7,5.4c2.2,0,4.1-0.8,5.3-2.7c0.5,1.8,1.7,2.5,3.5,2.7
				l0.7-2.2C768.4,350.9,767.8,350.4,767.8,348.8z M760.5,351.1c-2,0-3.1-1.1-3.1-3.2c0-2.4,1.7-3.7,5-3.7h2.3v4.1
				C763.7,350.1,762.3,351.1,760.5,351.1z"/>
		</g>
	</g>
	<g transform="matrix(4, 0, 0, 4, 0, 0)">
		<g>
			<path class="st0" d="M212.5,282c-3.1,0-6.1,1.5-8.1,4.3l-0.4-3.7h-4.1v38.5l4.8-0.6v-13c1.8,2.1,4.2,3.1,7.2,3.1
				c7.1,0,10.8-6,10.8-14.4C222.7,287.6,219.8,282,212.5,282z M210.8,306.7c-2.5,0-4.6-1.2-6-3.3V290c1.5-2.2,3.7-4.3,6.6-4.3
				c4.1,0,6.2,3.4,6.2,10.5C217.5,303.4,215.1,306.7,210.8,306.7z M249.3,303.6v-12.5c0-5.7-3-9.1-9.6-9.1c-3.1,0-6.1,0.6-9.5,1.9
				l1.2,3.5c2.8-0.9,5.4-1.5,7.4-1.5c3.8,0,5.7,1.5,5.7,5.4v2h-4.2c-7.6,0-12.1,3.2-12.1,9c0,4.9,3.3,8.3,8.7,8.3
				c3.3,0,6.2-1.2,8.2-4.1c0.8,2.7,2.6,3.8,5.4,4.1l1.1-3.3C250.2,306.8,249.3,306,249.3,303.6z M238.1,307c-3.1,0-4.7-1.7-4.7-4.9
				c0-3.7,2.5-5.6,7.6-5.6h3.6v6.3C242.9,305.6,240.9,307,238.1,307z M272,282c-3.6,0-6.5,1.9-8.4,4.7l-0.4-4.1h-4.1V310h4.8v-19.4
				c1.8-2.9,3.9-4.8,7-4.8c2.7,0,4.3,1.2,4.3,5.3v19h4.8v-19.7C280,285.1,277.1,282,272,282z M290.8,303.4c-2,0-3.6,1.6-3.6,3.6
				c0,1.2,0.6,2.3,1.5,3l-2.1,8.6h3.4l3.5-8c0.7-1.5,0.9-2.5,0.9-3.7C294.5,305,292.9,303.4,290.8,303.4z M323.3,282
				c-5.7,0-9.9,3.2-9.9,7.5c0,3.8,2.3,6.4,8.3,8c5.3,1.4,6.7,2.4,6.7,5.1c0,2.6-2.3,4.2-5.9,4.2c-3,0-5.5-1-7.7-2.7l-2.5,2.9
				c2.4,2.1,5.7,3.6,10.3,3.6c5.6,0,10.8-2.6,10.8-8.3c0-4.8-3.3-7.1-9.1-8.5c-4.4-1.1-5.9-2.2-5.9-4.4c0-2.2,1.9-3.6,5-3.6
				c2.5,0,4.7,0.8,7.1,2.3l2-3C330,283.1,327.1,282,323.3,282z M342.4,269.4c-2,0-3.3,1.4-3.3,3.3c0,1.8,1.4,3.2,3.3,3.2
				c2,0,3.4-1.4,3.4-3.2C345.8,270.8,344.4,269.4,342.4,269.4z M344.8,282.6H340v26.1c0,5.9-1.7,7.2-5.3,8.9l1.4,3.5
				c5.8-2.6,8.7-4.9,8.7-12.7V282.6z"/>
		</g>
	</g>
	<g transform="matrix(4, 0, 0, 4, 48, 2028)">
		<g>
			<path class="st1" d="M0,18.5v47C0,75.7,8.3,84,18.5,84h206c10.2,0,18.5-8.3,18.5-18.5v-47C243,8.3,234.7,0,224.5,0h-206
				C8.3,0,0,8.3,0,18.5z"/>
		</g>
	</g>
</g>
</svg>
